# xmcd CD database file
#
# Track frame offsets:
#	150
#	30446
#	69872
#	97549
#	132291
#	165082
#	215627
#	244680
#	277055
#
# Disc length: 4163 seconds
#
# Revision: 0
# Processed by: cddbd v1.5.2PL0 Copyright (c) Steve Scherf et al.
# Submitted via: CDex 1.70beta2
#
DISCID=6b104109
DTITLE=Alexandre Cote - Transitions
DYEAR=2011
DGENRE=Jazz
TTITLE0=Jackart
TTITLE1=Nice And Relaxed
TTITLE2=Blues Pour Ornette
TTITLE3=Lazy Morning
TTITLE4=Mon Etoile de Lune
TTITLE5=Wayne's Spirit
TTITLE6=Jackie's Elements
TTITLE7=Easy Sunday
TTITLE8=New Orleans Groove
EXTD=YEAR: 2011
EXTT0=
EXTT1=
EXTT2=
EXTT3=
EXTT4=
EXTT5=
EXTT6=
EXTT7=
EXTT8=
PLAYORDER=
